<?xml version="1.0" encoding="UTF-8"?>
<!DOCTYPE svg PUBLIC "-//W3C//DTD SVG 1.1//EN" "http://www.w3.org/Graphics/SVG/1.1/DTD/svg11.dtd">
<!-- Creator: CorelDRAW X8 -->
<svg xmlns="http://www.w3.org/2000/svg" xml:space="preserve" width="508mm" height="254mm" version="1.1" style="shape-rendering:geometricPrecision; text-rendering:geometricPrecision; image-rendering:optimizeQuality; fill-rule:evenodd; clip-rule:evenodd"
viewBox="0 0 50800 25400"
 xmlns:xlink="http://www.w3.org/1999/xlink">
 <defs>
  <style type="text/css">
   <![CDATA[
    .fil0 {fill:#EE781C;fill-rule:nonzero}
   ]]>
  </style>
 </defs>
 <g id="Layer_x0020_1">
  <metadata id="CorelCorpID_0Corel-Layer"/>
  <g id="_2503337000528">
   <path class="fil0" d="M42615 13129c-237,0 -428,-192 -428,-429 0,-236 191,-428 428,-428 237,0 429,192 429,428 0,237 -192,429 -429,429zm0 -1416c-545,0 -987,442 -987,987 0,545 442,987 987,987 545,0 987,-442 987,-987 0,-545 -442,-987 -987,-987z"/>
   <path class="fil0" d="M42615 8485c-237,0 -428,-192 -428,-429 0,-236 191,-428 428,-428 237,0 429,192 429,428 0,237 -192,429 -429,429zm0 -1415c-545,0 -987,442 -987,986 0,545 442,987 987,987 545,0 987,-442 987,-987 0,-544 -442,-986 -987,-986z"/>
   <path class="fil0" d="M47273 10836c-237,0 -428,-192 -428,-429 0,-236 191,-428 428,-428 237,0 429,192 429,428 0,237 -192,429 -429,429zm0 -1415c-545,0 -987,441 -987,986 0,545 442,987 987,987 545,0 987,-442 987,-987 0,-545 -442,-986 -987,-986z"/>
   <path class="fil0" d="M47273 15465c-237,0 -428,-192 -428,-429 0,-236 191,-428 428,-428 237,0 429,192 429,428 0,237 -192,429 -429,429zm0 -1416c-545,0 -987,442 -987,987 0,545 442,987 987,987 545,0 987,-442 987,-987 0,-545 -442,-987 -987,-987z"/>
   <path class="fil0" d="M42615 17772c-237,0 -428,-192 -428,-428 0,-237 191,-429 428,-429 237,0 429,192 429,429 0,236 -192,428 -429,428zm0 -1415c-545,0 -987,442 -987,987 0,545 442,986 987,986 545,0 987,-441 987,-986 0,-545 -442,-987 -987,-987z"/>
   <path class="fil0" d="M38001 10836c-237,0 -429,-192 -429,-429 0,-236 192,-428 429,-428 236,0 428,192 428,428 0,237 -192,429 -428,429zm0 -1415c-545,0 -987,441 -987,986 0,545 442,987 987,987 545,0 986,-442 986,-987 0,-545 -441,-986 -986,-986z"/>
   <path class="fil0" d="M38001 15465c-237,0 -429,-192 -429,-429 0,-236 192,-428 429,-428 236,0 428,192 428,428 0,237 -192,429 -428,429zm0 -1416c-545,0 -987,442 -987,987 0,545 442,987 987,987 545,0 986,-442 986,-987 0,-545 -441,-987 -986,-987z"/>
   <polygon class="fil0" points="46335,10294 43228,8740 43509,8178 46616,9732 "/>
   <polygon class="fil0" points="46651,15681 43532,17209 43255,16645 46375,15117 "/>
   <polygon class="fil0" points="41931,8755 38811,10282 38535,9718 41654,8190 "/>
   <polygon class="fil0" points="42021,13384 38902,14911 38625,14347 41745,12819 "/>
   <polygon class="fil0" points="46620,11105 43500,12632 43224,12068 46344,10540 "/>
   <polygon class="fil0" points="46335,14923 43228,13369 43509,12807 46616,14361 "/>
   <polygon class="fil0" points="46551,14485 42835,8998 43355,8646 47071,14132 "/>
   <polygon class="fil0" points="42811,16438 46512,10942 47033,11292 43332,16789 "/>
   <polygon class="fil0" points="38212,14159 41913,8662 42434,9014 38734,14510 "/>
   <polygon class="fil0" points="41966,16850 38249,11364 38770,11011 42486,16498 "/>
   <polygon class="fil0" points="41645,12577 38539,11023 38820,10461 41927,12015 "/>
   <polygon class="fil0" points="41645,17221 38539,15667 38820,15105 41927,16659 "/>
   <path class="fil0" d="M9328 14393m0 -4750l1241 0 0 3693 2012 0 0 1057 -3253 0 0 -4750z"/>
   <path class="fil0" d="M12670 14393m3985 0l-326 -840 -2053 0 -332 840 -1274 0 2039 -4750 1275 0 1992 4750 -1321 0zm-2007 -1789l1315 0 -650 -1694 -665 1694zm3755 1789m2853 0l-691 -1314 -27 0 -895 0 0 1314 -1240 0 0 -4750 2135 0c630,0 1118,142 1464,433 345,292 515,705 515,1234 0,359 -75,664 -217,921 -142,265 -353,468 -630,610l989 1552 -1403 0zm-1613 -2304l902 0c250,0 447,-61 589,-190 136,-128 204,-311 204,-549 0,-230 -68,-406 -204,-535 -142,-122 -339,-183 -589,-183l-902 0 0 1457zm3667 2304m4568 0l-1485 0 -1247 -1843 -596 664 0 1179 -1240 0 0 -4750 1240 0 0 2060 1782 -2060 1437 0 -1762 1958 1871 2792zm13 0m3985 0l-325 -840 -2054 0 -332 840 -1274 0 2040 -4750 1274 0 1993 4750 -1322 0zm-2006 -1789l1315 0 -651 -1694 -664 1694zm3755 1789m0 -4750l1240 0 0 4750 -1240 0 0 -4750z"/>
   <path class="fil0" d="M2540 18316m0 -2573l254 0 0 1178 1608 0 0 -1178 254 0 0 2573 -254 0 0 -1167 -1608 0 0 1167 -254 0 0 -2573zm2679 2573m953 -1936c298,0 526,96 685,283 158,192 228,449 217,769l-1608 0c18,207 92,372 228,497 136,129 301,192 500,192 122,0 236,-22 342,-67 107,-44 195,-106 273,-187l140 140c-92,99 -207,176 -335,231 -133,56 -276,85 -435,85 -187,0 -353,-40 -496,-125 -144,-81 -258,-195 -339,-342 -85,-148 -125,-317 -125,-504 0,-188 40,-354 125,-505 81,-147 195,-261 339,-346 143,-81 309,-121 489,-121zm681 861c-11,-202 -77,-361 -199,-482 -121,-118 -283,-177 -478,-177 -195,0 -357,59 -486,181 -129,121 -206,279 -224,478l1387 0zm567 1075m1380 0l-4 -324c-77,114 -177,195 -298,250 -122,55 -265,85 -423,85 -129,0 -243,-26 -343,-78 -99,-47 -176,-117 -231,-206 -56,-88 -81,-187 -81,-298 0,-165 66,-298 195,-393 128,-96 305,-144 529,-144l648 0 0 -147c0,-151 -44,-269 -136,-353 -92,-85 -224,-126 -397,-126 -207,0 -413,78 -622,232l-111 -169c129,-92 254,-158 372,-202 118,-41 254,-63 405,-63 232,0 412,59 541,173 128,118 191,280 195,486l3 1277 -242 0zm-681 -195c173,0 316,-41 438,-122 117,-77 198,-191 239,-335l0 -265 -622 0c-169,0 -298,30 -386,85 -89,55 -133,140 -133,254 0,114 44,206 129,276 84,70 195,107 335,107zm1600 195m0 -2731l247 0 0 2731 -247 0 0 -2731zm773 2731m1185 -133c-132,92 -276,140 -427,144 -147,0 -265,-44 -349,-136 -85,-92 -129,-229 -129,-409l0 -1148 -276 0 -4 -191 280 0 0 -497 246 0 0 497 626 -4 0 195 -626 0 0 1108c0,239 89,357 265,357 100,0 207,-34 321,-104l73 188zm464 133m1012 -1936c232,0 412,66 544,199 129,136 195,320 195,552l0 1185 -250 0 0 -1126c0,-181 -51,-324 -151,-427 -99,-103 -239,-155 -419,-155 -214,4 -379,74 -501,210 -121,140 -184,324 -184,552l0 946 -246 0 0 -2731 246 0 0 1259c129,-306 387,-460 766,-464zm1196 1936m1545 -1491c-158,-151 -349,-228 -577,-228 -137,0 -262,33 -372,96 -110,62 -195,151 -258,265 -62,114 -92,246 -92,394 0,147 30,279 92,393 63,114 148,206 258,269 110,62 235,96 372,96 125,0 239,-23 346,-67 103,-44 191,-106 261,-191l140 147c-85,103 -195,184 -324,239 -129,56 -276,85 -434,85 -184,0 -350,-40 -494,-125 -143,-81 -257,-195 -338,-346 -85,-147 -125,-313 -125,-500 0,-188 40,-354 125,-505 81,-147 195,-261 338,-346 144,-81 310,-121 494,-121 150,0 287,26 412,74 121,47 228,117 316,206l-140 165z"/>
   <path class="fil0" d="M16332 18316m1380 0l-3 -324c-78,114 -177,195 -298,250 -122,55 -265,85 -424,85 -128,0 -242,-26 -342,-78 -99,-47 -176,-117 -232,-206 -55,-88 -81,-187 -81,-298 0,-165 67,-298 195,-393 129,-96 306,-144 530,-144l648 0 0 -147c0,-151 -44,-269 -136,-353 -92,-85 -225,-126 -398,-126 -206,0 -412,78 -622,232l-110 -169c129,-92 254,-158 372,-202 117,-41 254,-63 405,-63 231,0 412,59 540,173 129,118 192,280 196,486l3 1277 -243 0zm-680 -195c172,0 316,-41 437,-122 118,-77 199,-191 240,-335l0 -265 -622 0c-170,0 -298,30 -387,85 -88,55 -132,140 -132,254 0,114 44,206 129,276 84,70 195,107 335,107zm1582 195m246 -1480c63,-147 155,-261 276,-338 118,-78 262,-114 427,-118l0 232c-202,-4 -368,55 -489,176 -125,122 -195,288 -214,497l0 1031 -246 0 0 -1929 246 0 0 449zm898 1480m953 -1936c299,0 527,96 685,283 158,192 228,449 217,769l-1608 0c18,207 92,372 228,497 136,129 302,192 501,192 121,0 235,-22 342,-67 106,-44 195,-106 272,-187l140 140c-92,99 -206,176 -335,231 -132,56 -276,85 -434,85 -188,0 -353,-40 -497,-125 -144,-81 -258,-195 -339,-342 -84,-148 -125,-317 -125,-504 0,-188 41,-354 125,-505 81,-147 195,-261 339,-346 144,-81 309,-121 489,-121zm681 861c-11,-202 -77,-361 -199,-482 -121,-118 -283,-177 -478,-177 -195,0 -357,59 -486,181 -128,121 -206,279 -224,478l1387 0zm1792 1075m950 -2573c320,0 566,74 739,221 173,151 262,361 262,633 0,283 -89,501 -262,655 -173,155 -419,232 -739,232l-696 0 0 832 -254 0 0 -2573 950 0zm-11 1513c246,0 434,-55 570,-169 133,-111 199,-273 199,-483 0,-206 -66,-364 -199,-471 -132,-106 -324,-161 -570,-161l-685 0 0 1284 685 0zm1133 1060m0 -1929l265 0 640 1682 633 -1682 258 0 -766 1929 -261 0 -769 -1929zm1936 1929m1185 -133c-133,92 -276,140 -427,144 -147,0 -265,-44 -350,-136 -84,-92 -129,-229 -129,-409l0 -1148 -276 0 -3 -191 279 0 0 -497 247 0 0 497 626 -4 0 195 -626 0 0 1108c0,239 88,357 265,357 99,0 206,-34 320,-104l74 188zm1501 133m0 -2573l254 0 0 2344 1133 0 0 229 -1387 0 0 -2573zm1630 2573m1185 -133c-132,92 -276,140 -427,144 -147,0 -265,-44 -349,-136 -85,-92 -129,-229 -129,-409l0 -1148 -276 0 -4 -191 280 0 0 -497 246 0 0 497 626 -4 0 195 -626 0 0 1108c0,239 89,357 265,357 100,0 207,-34 321,-104l73 188z"/>
   <path class="fil0" d="M32910 18316m1954 -2731l0 2731 -246 0 0 -442c-74,144 -177,258 -309,335 -133,81 -287,121 -464,121 -180,0 -342,-40 -486,-125 -143,-84 -254,-198 -331,-349 -77,-151 -118,-321 -118,-508 0,-188 41,-357 122,-504 77,-148 188,-262 331,-346 140,-85 298,-125 478,-125 177,0 332,40 468,121 132,81 235,195 309,339l0 -1248 246 0zm-975 2532c140,0 265,-33 376,-99 110,-63 198,-155 261,-269 62,-114 92,-247 92,-394 0,-147 -30,-279 -92,-397 -63,-114 -151,-206 -261,-273 -111,-66 -236,-99 -376,-99 -140,0 -265,33 -375,99 -111,67 -199,159 -261,273 -63,118 -96,250 -96,397 0,147 33,280 96,394 62,114 147,206 261,269 110,66 235,99 375,99z"/>
  </g>
 </g>
</svg>
